<svg xmlns="http://www.w3.org/2000/svg" viewBox="0 0 3314.45 450.16"><defs><style>.cls-1{fill:#148b9d;}.cls-2{fill:#0e314c;}</style></defs><g id="Слой_2" data-name="Слой 2"><g id="Слой_1-2" data-name="Слой 1"><path class="cls-1" d="M242.17,66.86H409.33V419h-119V193L264.17,219.2V419h-119V193L119,219.2V419H0V66.86H166.46l37.74,38ZM699.66,230.78v150l-38,38h-226V319.22H580.88v-26.4H473.69l-38-38v-150l38-38h226v100H554.72V193h107ZM990,66.86V380.8l-38,38H764l-38-38V66.86h119v226.2l26.16,26.16V66.86Z"/><path class="cls-2" d="M2260.34,66.86H2071.87l-37.73,37.74V380.8l38,38h188l38-38V104.6Zm-81,226.2-26.16,26.16V166.65h26.16Z"/><polygon class="cls-2" points="2324.46 66.86 2588.4 66.86 2588.4 166.88 2515.93 166.88 2515.93 418.77 2396.93 418.77 2396.93 166.88 2324.46 166.88 2324.46 66.86"/><rect class="cls-2" x="2614.79" y="66.86" width="118.78" height="351.91"/><polygon class="cls-2" points="2798.16 66.86 2986.15 66.86 3024.11 104.83 3024.11 229.62 2905.35 229.62 2905.35 166.41 2878.95 166.41 2878.95 318.99 2905.35 318.99 2905.35 256.01 3024.11 256.01 3024.11 380.8 2986.15 418.77 2798.16 418.77 2760.19 380.8 2760.19 104.83 2798.16 66.86"/><polygon class="cls-2" points="3314.45 230.78 3314.45 380.8 3276.48 418.77 3050.51 418.77 3050.51 319.22 3195.68 319.22 3195.68 292.82 3088.48 292.82 3050.51 254.86 3050.51 104.83 3088.48 66.86 3314.45 66.86 3314.45 166.88 3169.51 166.88 3169.51 193.04 3276.48 193.04 3314.45 230.78"/><path class="cls-2" d="M1743.81,439.28c32.7-18.6,55.92-46.18,69-82,10-27.41,9.5-53.22-1.59-76.72-16.16-34.35-42.74-57.29-79-68.19-17.52-5.26-36-5.8-56.35-1.66h0c9.23,25,11,48.35,5.35,69.24s-18.9,39.88-39.37,56.79h0c5.69,13.14,8,26.76,10.42,41.17.11.62.21,1.25.32,1.88l.1.05.92,5.94c2.17,12.36,4.64,26.33,12.43,38.15l.52.76c7.12,10.41,16.45,21.44,31.67,24.45l.33.06C1712.79,451.93,1727.16,448.77,1743.81,439.28Z"/><path class="cls-2" d="M1503.14,194.72c-28.89-34-36.93-72.23-25.18-114.68,6.35-22.87,17.73-42.74,37-57.36a108.46,108.46,0,0,1,51.34-20.94,151.1,151.1,0,0,1,93.17,15.62,120.17,120.17,0,0,1,26,18.72c15.9,14.87,18.39,33.05,10.59,53.11-5.47,14.09-15.45,24.52-26.61,34.07-8.26,7.08-16.8,13.83-24.8,21.23-5.65,5.18-10.62,11-15.86,16.38Q1554.23,132.81,1503.14,194.72Z"/><path class="cls-2" d="M1369.53,418.77l-9-9.2.92-.3c-19.13-24-31.26-52.82-36-85.93a125.34,125.34,0,0,1,2.1-50.83l.1-.39c4.59-17,12.21-29.52,23.3-38.28,9.87-7.8,22.19-12.46,38.78-14.69a79.41,79.41,0,0,1,21.58.11l14.42-14.41V104.6L1388,66.86H1161.77V418.77h119V345.38l26.16-26.16v99.55Zm-88.76-189.15v-63h26.16v36.81Z"/><path class="cls-1" d="M1572.94,184.1a70.63,70.63,0,1,1-44.85,29.55A70.55,70.55,0,0,1,1572.94,184.1Z"/><path class="cls-2" d="M1811.24,280.58c-14.49-30.82-37.38-52.44-68.12-64.43V418.77h29c18.12-16.52,31.75-37.08,40.67-61.47C1822.87,329.89,1822.33,304.08,1811.24,280.58Z"/><path class="cls-2" d="M2007.05,104.83l-38-38h-226V193.47c39.39,13.16,69.56,40,87.42,78,13.42,28.44,14.23,60.65,2.32,93.16a177.46,177.46,0,0,1-31.07,54.13h167.3l38-38V280.55l-38-37.73,38-38ZM1888.28,319.22l-26.39,26.16v-67.6h26.39Zm0-126.18-26.39,26.16V166.88h26.39Z"/><path class="cls-2" d="M1343.29,291.58c-2.58,37.54,7.57,72.13,30.16,102.83,17.3,23.53,39.1,37.35,64.81,41.1,37.56,5.52,71.37-3.95,100.5-28.15,14.07-11.7,24.72-26.76,32.54-46.05h0c-26-6.16-46.39-17.54-60.66-33.81s-22.78-37.8-25.56-64.2v0c-14.1-2.52-26.72-8.13-40.07-14.07l-1.74-.78-.1.06L1437.7,246c-11.5-5-24.5-10.69-38.66-10.73l-.92,0c-12.61.18-27,1.85-37.89,12.87l-.23.24C1349.9,258.74,1344.59,272.47,1343.29,291.58Z"/></g></g></svg>